PathFileType	4	(X/Y/Z)	C:\Users\WrightLab\Desktop\Jo\P4V124.trc
DataRate	CameraRate	NumFrames	NumMarkers	Units	OrigDataRate	OrigDataStartFrame	OrigNumFrames
100.00	100.00	       21	19	mm	100.00	352	       562
Frame#	Time	Headset_Front			Headset_Back			Headset_Left			Headset_Right			Left_Shoulder			Right_Shoulder			Sternum			C7			Left Elbow			Right Elbow			Left Wrist			Right Wrist			Left ASIS			Right ASIS			S2			Left Knee			Right Knee			Left Ankle			Right Ankle			
		X1	Y1	Z1	X2	Y2	Z2	X3	Y3	Z3	X4	Y4	Z4	X5	Y5	Z5	X6	Y6	Z6	X7	Y7	Z7	X8	Y8	Z8	X9	Y9	Z9	X10	Y10	Z10	X11	Y11	Z11	X12	Y12	Z12	X13	Y13	Z13	X14	Y14	Z14	X15	Y15	Z15	X16	Y16	Z16	X17	Y17	Z17	X18	Y18	Z18	X19	Y19	Z19	

352	3.510	165.96497	1690.58838	1217.99402							56.11648	1721.12903	1116.78784	307.87283	1550.54810	967.19763	7.45674	1557.38660	1014.55389	187.00778	1496.99841	1101.56177				467.75519	1209.78040	932.42834	-106.54326	1209.82153	1104.52588	515.87250	950.76611	1101.29529	-14.92123	1002.68402	1301.54297	342.56686	1081.48877	1084.02454	12.19932	1037.46265	1121.85315	180.08760	1075.49133	912.42084	428.87354	643.44519	1232.46533	116.45299	559.64105	1095.35938	418.17337	212.12834	955.95367	251.47824	85.63320	967.18347	
353	3.520	166.29030	1690.43201	1226.85095							57.08658	1721.32935	1125.01575	310.23657	1550.41968	977.64197	8.97011	1557.30981	1020.67059	187.09286	1496.51270	1110.64856				468.01346	1209.35339	941.32861	-107.17179	1210.32935	1111.05310	515.20154	947.03156	1103.89844	-14.33988	1008.54877	1312.28931	342.35931	1082.37024	1096.23877	12.61023	1037.42444	1128.11902	184.16222	1075.50269	922.20209	425.11697	644.46570	1247.23901	116.09934	559.63245	1097.54175	427.56531	203.11757	986.30536	251.43831	85.65457	967.21832	
354	3.530	165.82642	1690.62012	1235.66931							58.18771	1721.60999	1133.14197	312.02664	1550.49512	989.08014	9.68845	1556.90991	1027.12109	186.97430	1496.26538	1119.79285				468.31079	1208.79431	951.04309	-107.20869	1210.59070	1117.54077	513.01807	941.33881	1106.22253	-13.68702	1014.26025	1323.07837	341.86588	1081.62329	1106.54761	12.44465	1037.88879	1134.55334	187.86101	1075.97852	930.44482	421.32092	644.86133	1261.46338	115.73952	559.40704	1099.77051	436.13196	194.23502	1017.07092	251.16673	85.64587	967.54913	
355	3.540	165.77621	1690.62549	1244.55298							59.40711	1721.39490	1141.41150	313.74323	1550.20313	999.88550	11.12133	1556.60022	1033.75586	186.93077	1496.18018	1128.64063				468.02530	1208.19592	959.80304	-107.28647	1210.89880	1123.79089	511.99432	937.00403	1109.24963	-13.33171	1020.00317	1333.62976	343.17996	1081.53308	1119.07080	12.89341	1037.26208	1139.64453	190.89651	1075.80847	938.84613	417.38654	644.58179	1275.30176	115.66047	559.03876	1102.36890	442.39645	184.88820	1048.45984	251.14156	85.62531	967.58087	
356	3.550	166.77632	1689.64441	1253.49451							60.08333	1721.35156	1149.76855	315.68384	1550.48389	1011.07605	11.78351	1556.36792	1040.35156	186.18390	1495.85010	1137.77197				468.15652	1207.80688	968.94293	-107.91142	1211.11462	1130.06006	510.10248	932.14520	1112.26184	-13.34919	1025.57385	1343.95337	343.17123	1081.35583	1130.86487	11.95916	1037.54590	1145.37671	194.67422	1076.63171	947.53833	413.44510	644.46545	1288.00195	115.56052	558.67590	1105.07837	449.08279	176.72537	1080.28271	251.10744	85.62432	967.57788	
357	3.560	166.62242	1689.28516	1262.47437							61.02581	1721.02234	1158.13562	317.03891	1550.54529	1022.70099	13.04402	1556.04480	1046.91138	186.34135	1495.26892	1146.76721				468.07104	1207.16382	978.00549	-107.94302	1211.08911	1136.49561	507.66055	927.82794	1115.33459	-13.22203	1030.71582	1354.31543	343.26419	1081.14685	1141.64880	12.08039	1036.93896	1151.17224	197.46407	1075.98962	955.89777	409.55719	643.80359	1300.28503	115.61592	558.47223	1107.80127	451.72580	167.93106	1113.35779	251.07204	85.65636	967.65063	
358	3.570	166.03156	1689.01282	1271.49329							60.84843	1720.95947	1166.69019	318.55148	1550.36743	1032.03601	14.05075	1555.54114	1053.84692	186.03409	1495.16260	1155.88696				467.43088	1206.86255	987.09619	-108.42710	1211.14075	1142.51453	506.81995	924.67657	1118.38025	-13.19104	1035.92078	1364.21423	342.74185	1080.40173	1153.23511	11.83445	1036.14624	1157.21545	200.96979	1076.33850	966.66882	405.62521	642.78253	1312.17773	115.53153	558.04346	1110.56311	453.95117	160.17203	1145.53638	250.79988	85.69710	967.98657	
359	3.580	165.85295	1688.60742	1280.41113							61.74205	1720.42969	1175.16357	319.60956	1550.68201	1044.66467	15.29419	1555.09204	1060.81653	185.97057	1494.32874	1165.03394				467.26663	1206.46411	996.18274	-108.74439	1211.10339	1149.03101	505.85519	921.87390	1121.89417	-13.48396	1040.69397	1373.99243	342.84225	1080.52625	1165.01331	12.07483	1035.46924	1163.28857	203.57774	1075.77954	975.25385	401.23206	641.55109	1323.60046	115.84464	557.94550	1112.87366	454.88928	152.07520	1178.53552	250.57327	85.61887	968.27448	
360	3.590	166.78105	1687.37756	1289.54285							61.51099	1719.91809	1183.85828	321.18066	1550.14966	1054.95728	16.24851	1554.57312	1067.90710	185.75114	1493.50989	1173.90540				467.30679	1205.90588	1005.50281	-108.84638	1211.11206	1155.40625	503.15958	918.31891	1125.87781	-14.34647	1045.40833	1384.08069	342.43994	1078.76575	1176.36987	11.79364	1034.69690	1169.63684	206.67419	1075.89307	985.22772	398.50348	640.28052	1334.10852	115.86774	557.56982	1115.79797	454.61206	144.72633	1211.09412	250.57469	85.68480	968.30615	
361	3.600	166.14804	1686.30920	1298.74573							62.30561	1718.83032	1192.49829	322.25687	1549.82385	1066.02905	17.21527	1553.98303	1075.11816	185.69334	1492.69580	1183.06921				466.89432	1204.88953	1014.07605	-108.98778	1210.80603	1162.20581	501.37747	915.03986	1129.74658	-14.23197	1049.27808	1393.73413	342.25693	1078.29919	1186.77271	10.69483	1034.37048	1176.87427	208.92453	1074.75964	994.77454	393.26904	637.68634	1345.30298	116.64028	556.81915	1118.58154	452.80865	138.48186	1243.35632	250.60788	85.78680	968.39099	
362	3.610	165.23532	1685.39685	1307.90820							62.80792	1718.20361	1201.11096	323.42889	1549.28357	1076.37793	18.78984	1553.08435	1082.61829	185.75212	1491.75293	1192.14172				467.51749	1204.55579	1023.15961	-109.45403	1210.74219	1168.83740	499.86057	912.65802	1133.63647	-15.26345	1053.57336	1403.49036	341.69135	1077.18005	1198.59814	11.35670	1033.69751	1183.84570	210.61195	1074.77246	1003.71429	389.82388	635.12054	1354.71411	116.59940	556.58374	1122.00488	449.50211	131.84505	1275.72327	250.68971	86.02357	968.64551	
363	3.620	165.79491	1683.89526	1317.04529							63.03798	1717.22498	1209.90552	324.52234	1548.32104	1087.35852	19.74800	1551.97131	1090.24500	185.79800	1490.74744	1201.32227				467.31985	1203.74548	1032.04480	-109.81293	1210.51514	1175.74902	497.63086	910.39215	1139.13672	-16.01443	1057.09155	1413.12305	342.78690	1076.02319	1210.69470	11.40842	1032.89478	1190.84143	212.85764	1074.07739	1012.40723	387.22537	632.99323	1364.31091	117.02821	556.04736	1124.74377	444.50266	126.07766	1307.47925	250.72713	86.28988	968.90564	
364	3.630										62.89777	1716.08704	1218.68774	325.95749	1547.47314	1097.67065	20.43309	1551.00391	1097.97937	185.49193	1489.90942	1210.50012				467.44528	1203.04456	1040.70435	-110.28766	1210.16846	1182.65320	496.07181	908.44720	1144.90686	-16.95425	1060.13855	1422.31714	341.81519	1074.25183	1221.46692	11.81128	1031.62256	1198.10266	215.24710	1073.88940	1024.54297	384.42285	629.71838	1373.17346	116.99996	555.91461	1128.64063	438.58841	120.23076	1338.47571	250.96204	86.57576	968.79974	
365	3.640										63.50220	1714.69861	1227.54993	326.76486	1546.44202	1108.70081	21.22792	1550.33997	1105.66321	185.33919	1488.57410	1219.98267				467.15680	1202.33875	1049.49036	-110.82685	1209.39587	1190.13843	494.82098	907.57861	1151.10120	-17.99165	1063.26147	1432.50220	342.24280	1072.47449	1231.91614	11.39604	1030.92737	1206.33875	217.09534	1072.79712	1032.97656	382.16507	626.95746	1381.84863	117.39502	554.93915	1132.40491	430.97321	116.38403	1369.69397	251.12680	87.17197	969.10034	
366	3.650										63.54262	1713.42212	1236.51746	327.57782	1545.36511	1119.05774	22.22001	1548.97095	1113.75305	185.64786	1487.49524	1229.23694				467.81650	1200.85254	1057.95642	-111.09480	1208.58691	1197.41394	492.19150	904.21240	1156.88330	-19.18158	1065.41479	1441.32129	341.65472	1070.21533	1243.22351	11.50948	1029.67761	1214.13184	218.26903	1072.46069	1043.40332	379.96960	623.37347	1390.42664	117.13603	554.53094	1135.90210	421.91318	112.77558	1399.91077	251.39597	87.69996	969.18140	
367	3.660										64.00175	1712.04272	1245.43616	328.16653	1543.90796	1128.69238	22.77369	1547.94006	1121.92041	185.54477	1486.23035	1239.13562				467.85837	1199.72437	1067.31519	-111.48143	1207.82007	1205.15356	491.24689	902.74231	1164.35046	-20.29224	1067.34766	1451.07544	341.24228	1068.31714	1254.00488	12.55986	1028.20093	1222.07190	220.28792	1071.10474	1053.29028	377.44952	619.44977	1397.42151	116.98691	554.13751	1140.19312	412.11777	108.82130	1428.27039	251.29590	88.33659	969.40302	
368	3.670										64.15020	1710.56287	1254.49182	329.15225	1542.74646	1139.90039	23.54831	1546.32349	1130.26746	186.03731	1484.88708	1248.14539				468.17606	1198.59094	1075.81482	-111.98967	1207.03052	1212.89880	490.16635	900.92346	1170.23987	-21.73403	1068.72131	1460.71997	341.36279	1066.15491	1265.65271	12.47617	1026.77478	1230.52710	221.92412	1070.00940	1065.48596	375.47168	615.87708	1405.53333	116.80627	553.32196	1144.64722	401.16379	106.72279	1455.62634	251.70897	89.20309	970.17133	
369	3.680										63.79328	1709.56433	1263.53723	329.81967	1541.28003	1149.54224	24.24071	1544.99353	1138.59009	185.34300	1483.62158	1258.00793				468.80923	1197.21277	1085.62219	-112.36908	1205.91089	1221.02502	489.67761	899.88519	1179.10083	-23.65686	1069.42432	1469.88416	341.50601	1063.77161	1276.19299	13.12442	1025.82483	1239.24109	223.81093	1068.91809	1073.58911	372.57236	610.90466	1412.21899	117.13392	552.67645	1148.07886	389.80020	104.39364	1481.31384	252.02640	89.65129	970.59369	
370	3.690	116.17336	1593.12830	1103.69934							64.49088	1708.17017	1272.65930	330.31195	1539.74683	1160.40503	25.17661	1543.18860	1147.27051	185.59459	1482.29272	1267.53943				469.12897	1195.71924	1093.77625	-113.24522	1204.78125	1229.21130	488.45978	897.78601	1187.39758	-24.84746	1069.91479	1479.08740	341.45108	1061.69971	1287.62097	12.80680	1024.50854	1248.38074	225.84750	1067.48743	1085.74341	370.67969	607.17175	1419.77612	117.07044	552.58624	1152.69714	378.28314	103.57422	1505.79578	252.52863	90.06930	971.06946	
371	3.700	116.19965	1591.54688	1113.25342							64.69754	1706.84875	1281.91296	330.49091	1537.82874	1169.14026	26.02403	1541.65295	1156.16968	185.83228	1480.82458	1277.05872				470.12787	1194.33362	1103.67188	-113.53291	1203.47424	1237.72583	488.55664	896.66565	1195.77283	-26.36481	1070.46582	1488.89624	342.17743	1059.41821	1299.03772	13.56908	1023.29132	1257.27612	226.77687	1066.45544	1095.37256	367.04636	601.65887	1426.39038	116.68257	551.93060	1157.67493	365.82919	101.79922	1528.57166	252.69148	91.54736	971.70264	
372	3.710	115.33420	1590.00464	1122.95850							64.95150	1705.41785	1291.28320	330.54156	1536.47241	1179.95227	25.95025	1540.18530	1165.34534	185.53378	1479.47559	1287.09131				470.07526	1192.92395	1112.82410	-114.10041	1202.32361	1246.25806	488.89279	894.58820	1204.60608	-28.04375	1070.00110	1498.12634	342.04514	1057.12000	1310.04395	13.22302	1022.55939	1266.47339	228.70418	1065.15674	1107.46472	364.65915	598.26428	1435.43567	116.48483	551.99298	1162.94141	354.56552	100.60442	1549.01135	252.93434	93.25268	972.37524	
